<mxfile host="Electron" agent="Mozilla/5.0 (Windows NT 10.0; Win64; x64) AppleWebKit/537.36 (KHTML, like Gecko) draw.io/28.0.6 Chrome/138.0.7204.100 Electron/37.2.3 Safari/537.36" version="28.0.6">
  <diagram name="Page-1" id="yoQYSZhefAMHcPjo6ywg">
    <mxGraphModel dx="2323" dy="851" grid="1" gridSize="10" guides="1" tooltips="1" connect="1" arrows="1" fold="1" page="1" pageScale="1" pageWidth="850" pageHeight="1100" math="0" shadow="0">
      <root>
        <mxCell id="0" />
        <mxCell id="1" parent="0" />
        <mxCell id="CJxo2ervFT9Eq8WJpUUf-10" value="Logical Diagram" style="text;html=1;align=center;verticalAlign=middle;whiteSpace=wrap;rounded=0;fontSize=18;fontStyle=1" parent="1" vertex="1">
          <mxGeometry x="-850" width="190" height="40" as="geometry" />
        </mxCell>
        <mxCell id="CJxo2ervFT9Eq8WJpUUf-2" value="" style="sketch=0;points=[[0.015,0.015,0],[0.985,0.015,0],[0.985,0.985,0],[0.015,0.985,0],[0.25,0,0],[0.5,0,0],[0.75,0,0],[1,0.25,0],[1,0.5,0],[1,0.75,0],[0.75,1,0],[0.5,1,0],[0.25,1,0],[0,0.75,0],[0,0.5,0],[0,0.25,0]];verticalLabelPosition=bottom;html=1;verticalAlign=top;aspect=fixed;align=center;pointerEvents=1;shape=mxgraph.cisco19.rect;prIcon=l3_switch;fillColor=#FAFAFA;strokeColor=#005073;textShadow=1;" parent="1" vertex="1">
          <mxGeometry x="-230" y="200" width="50" height="50" as="geometry" />
        </mxCell>
        <mxCell id="CJxo2ervFT9Eq8WJpUUf-9" value="" style="sketch=0;points=[[0.5,0,0],[1,0.5,0],[0.5,1,0],[0,0.5,0],[0.145,0.145,0],[0.8555,0.145,0],[0.855,0.8555,0],[0.145,0.855,0]];verticalLabelPosition=bottom;html=1;verticalAlign=top;aspect=fixed;align=center;pointerEvents=1;shape=mxgraph.cisco19.rect;prIcon=wireless_router;fillColor=#FAFAFA;strokeColor=#005073;" parent="1" vertex="1">
          <mxGeometry x="-40" y="110" width="50" height="60" as="geometry" />
        </mxCell>
        <mxCell id="CJxo2ervFT9Eq8WJpUUf-5" value="" style="sketch=0;points=[[0.5,0,0],[1,0.5,0],[0.5,1,0],[0,0.5,0],[0.145,0.145,0],[0.8555,0.145,0],[0.855,0.8555,0],[0.145,0.855,0]];verticalLabelPosition=bottom;html=1;verticalAlign=top;aspect=fixed;align=center;pointerEvents=1;shape=mxgraph.cisco19.rect;prIcon=router;fillColor=#FAFAFA;strokeColor=#005073;" parent="1" vertex="1">
          <mxGeometry x="-230" y="40" width="50" height="50" as="geometry" />
        </mxCell>
        <mxCell id="CJxo2ervFT9Eq8WJpUUf-12" value="" style="endArrow=classic;startArrow=classic;html=1;rounded=0;entryX=0.5;entryY=1;entryDx=0;entryDy=0;entryPerimeter=0;exitX=0.5;exitY=0;exitDx=0;exitDy=0;exitPerimeter=0;" parent="1" source="CJxo2ervFT9Eq8WJpUUf-2" target="CJxo2ervFT9Eq8WJpUUf-5" edge="1">
          <mxGeometry width="50" height="50" relative="1" as="geometry">
            <mxPoint x="-220" y="250" as="sourcePoint" />
            <mxPoint x="-170" y="200" as="targetPoint" />
          </mxGeometry>
        </mxCell>
        <mxCell id="CJxo2ervFT9Eq8WJpUUf-13" value="" style="endArrow=classic;startArrow=classic;html=1;rounded=0;exitX=0;exitY=0.5;exitDx=0;exitDy=0;exitPerimeter=0;entryX=1;entryY=0.5;entryDx=0;entryDy=0;entryPerimeter=0;" parent="1" source="CJxo2ervFT9Eq8WJpUUf-9" target="CJxo2ervFT9Eq8WJpUUf-2" edge="1">
          <mxGeometry width="50" height="50" relative="1" as="geometry">
            <mxPoint x="-220" y="250" as="sourcePoint" />
            <mxPoint x="-170" y="200" as="targetPoint" />
          </mxGeometry>
        </mxCell>
        <mxCell id="CJxo2ervFT9Eq8WJpUUf-15" value="" style="endArrow=classic;startArrow=classic;html=1;rounded=0;entryX=0;entryY=0.5;entryDx=0;entryDy=0;exitX=1;exitY=0.5;exitDx=0;exitDy=0;exitPerimeter=0;" parent="1" source="CJxo2ervFT9Eq8WJpUUf-2" target="CJxo2ervFT9Eq8WJpUUf-20" edge="1">
          <mxGeometry width="50" height="50" relative="1" as="geometry">
            <mxPoint x="-220" y="250" as="sourcePoint" />
            <mxPoint x="60" y="225" as="targetPoint" />
          </mxGeometry>
        </mxCell>
        <mxCell id="CJxo2ervFT9Eq8WJpUUf-21" value="" style="image;html=1;image=img/lib/clip_art/computers/Monitor_Tower_128x128.png" parent="1" vertex="1">
          <mxGeometry y="170" width="80" height="80" as="geometry" />
        </mxCell>
        <mxCell id="CJxo2ervFT9Eq8WJpUUf-20" value="" style="image;html=1;image=img/lib/clip_art/computers/Monitor_Tower_128x128.png" parent="1" vertex="1">
          <mxGeometry x="-20" y="185" width="80" height="80" as="geometry" />
        </mxCell>
        <mxCell id="CJxo2ervFT9Eq8WJpUUf-17" value="Proxmox Cluster" style="text;html=1;align=center;verticalAlign=middle;whiteSpace=wrap;rounded=0;container=0;" parent="1" vertex="1">
          <mxGeometry x="-825" y="360" width="100" height="30" as="geometry" />
        </mxCell>
        <mxCell id="CJxo2ervFT9Eq8WJpUUf-16" value="" style="rounded=0;whiteSpace=wrap;html=1;container=0;" parent="1" vertex="1">
          <mxGeometry x="-825" y="390" width="800" height="350" as="geometry" />
        </mxCell>
        <mxCell id="CJxo2ervFT9Eq8WJpUUf-22" value="* Descriptive only - see Data Flows for full set of services and microsegmentation architecture" style="text;html=1;align=center;verticalAlign=middle;whiteSpace=wrap;rounded=0;container=0;" parent="1" vertex="1">
          <mxGeometry x="-825" y="760" width="315" height="30" as="geometry" />
        </mxCell>
        <mxCell id="CJxo2ervFT9Eq8WJpUUf-25" value="" style="endArrow=none;dashed=1;html=1;dashPattern=1 3;strokeWidth=2;rounded=0;exitX=0.5;exitY=1;exitDx=0;exitDy=0;" parent="1" source="CJxo2ervFT9Eq8WJpUUf-16" target="CJxo2ervFT9Eq8WJpUUf-26" edge="1">
          <mxGeometry width="50" height="50" relative="1" as="geometry">
            <mxPoint x="-390" y="460" as="sourcePoint" />
            <mxPoint x="-425" y="500" as="targetPoint" />
          </mxGeometry>
        </mxCell>
        <mxCell id="CJxo2ervFT9Eq8WJpUUf-26" value="" style="sketch=0;outlineConnect=0;fontColor=#232F3E;gradientColor=none;fillColor=#232F3D;strokeColor=none;dashed=0;verticalLabelPosition=bottom;verticalAlign=top;align=center;html=1;fontSize=12;fontStyle=0;aspect=fixed;pointerEvents=1;shape=mxgraph.aws4.generic_firewall;" parent="1" vertex="1">
          <mxGeometry x="-455" y="420" width="59.09" height="50" as="geometry" />
        </mxCell>
        <mxCell id="CJxo2ervFT9Eq8WJpUUf-27" value="Core" style="rounded=0;whiteSpace=wrap;html=1;" parent="1" vertex="1">
          <mxGeometry x="-500" y="390" width="50" height="20" as="geometry" />
        </mxCell>
        <mxCell id="CJxo2ervFT9Eq8WJpUUf-28" value="External" style="rounded=0;whiteSpace=wrap;html=1;" parent="1" vertex="1">
          <mxGeometry x="-450" y="390" width="50" height="20" as="geometry" />
        </mxCell>
        <mxCell id="CJxo2ervFT9Eq8WJpUUf-29" value="DMZ" style="rounded=0;whiteSpace=wrap;html=1;" parent="1" vertex="1">
          <mxGeometry x="-400" y="390" width="50" height="20" as="geometry" />
        </mxCell>
        <mxCell id="CJxo2ervFT9Eq8WJpUUf-30" value="" style="endArrow=classic;startArrow=classic;html=1;rounded=0;entryX=0.5;entryY=1;entryDx=0;entryDy=0;entryPerimeter=0;exitX=0.5;exitY=0;exitDx=0;exitDy=0;" parent="1" source="CJxo2ervFT9Eq8WJpUUf-28" target="CJxo2ervFT9Eq8WJpUUf-2" edge="1">
          <mxGeometry width="50" height="50" relative="1" as="geometry">
            <mxPoint x="-390" y="420" as="sourcePoint" />
            <mxPoint x="-340" y="370" as="targetPoint" />
          </mxGeometry>
        </mxCell>
        <mxCell id="CJxo2ervFT9Eq8WJpUUf-31" value="" style="endArrow=classic;startArrow=classic;html=1;rounded=0;entryX=0.5;entryY=1;entryDx=0;entryDy=0;entryPerimeter=0;exitX=0.5;exitY=0;exitDx=0;exitDy=0;" parent="1" source="CJxo2ervFT9Eq8WJpUUf-27" target="CJxo2ervFT9Eq8WJpUUf-2" edge="1">
          <mxGeometry width="50" height="50" relative="1" as="geometry">
            <mxPoint x="-390" y="420" as="sourcePoint" />
            <mxPoint x="-340" y="370" as="targetPoint" />
          </mxGeometry>
        </mxCell>
        <mxCell id="CJxo2ervFT9Eq8WJpUUf-32" value="" style="endArrow=classic;startArrow=classic;html=1;rounded=0;entryX=0.5;entryY=1;entryDx=0;entryDy=0;entryPerimeter=0;exitX=0.5;exitY=0;exitDx=0;exitDy=0;" parent="1" source="CJxo2ervFT9Eq8WJpUUf-29" target="CJxo2ervFT9Eq8WJpUUf-2" edge="1">
          <mxGeometry width="50" height="50" relative="1" as="geometry">
            <mxPoint x="-390" y="420" as="sourcePoint" />
            <mxPoint x="-340" y="370" as="targetPoint" />
          </mxGeometry>
        </mxCell>
        <mxCell id="CJxo2ervFT9Eq8WJpUUf-33" value="Identity" style="rounded=0;whiteSpace=wrap;html=1;" parent="1" vertex="1">
          <mxGeometry x="-810" y="430" width="140" height="80" as="geometry" />
        </mxCell>
        <mxCell id="CJxo2ervFT9Eq8WJpUUf-34" value="Code" style="rounded=0;whiteSpace=wrap;html=1;" parent="1" vertex="1">
          <mxGeometry x="-810" y="540" width="140" height="80" as="geometry" />
        </mxCell>
        <mxCell id="CJxo2ervFT9Eq8WJpUUf-35" value="Email" style="rounded=0;whiteSpace=wrap;html=1;" parent="1" vertex="1">
          <mxGeometry x="-650" y="430" width="140" height="80" as="geometry" />
        </mxCell>
        <mxCell id="CJxo2ervFT9Eq8WJpUUf-36" value="Vault" style="sketch=0;outlineConnect=0;fontColor=#232F3E;gradientColor=none;strokeColor=#232F3E;fillColor=#ffffff;dashed=0;verticalLabelPosition=bottom;verticalAlign=top;align=center;html=1;fontSize=12;fontStyle=0;aspect=fixed;shape=mxgraph.aws4.resourceIcon;resIcon=mxgraph.aws4.vault;" parent="1" vertex="1">
          <mxGeometry x="-450" y="205" width="60" height="60" as="geometry" />
        </mxCell>
        <mxCell id="CJxo2ervFT9Eq8WJpUUf-37" value="Ansible" style="shape=rect;fillColor=#EE5396;aspect=fixed;resizable=0;labelPosition=center;verticalLabelPosition=bottom;align=center;verticalAlign=top;strokeColor=none;fontSize=14;" parent="1" vertex="1">
          <mxGeometry x="-440" y="122" width="48" height="48" as="geometry" />
        </mxCell>
        <mxCell id="CJxo2ervFT9Eq8WJpUUf-38" value="" style="fillColor=#ffffff;strokeColor=none;dashed=0;outlineConnect=0;html=1;labelPosition=center;verticalLabelPosition=bottom;verticalAlign=top;part=1;movable=0;resizable=0;rotatable=0;shape=mxgraph.ibm_cloud.logo--ansible-community" parent="CJxo2ervFT9Eq8WJpUUf-37" vertex="1">
          <mxGeometry width="24" height="24" relative="1" as="geometry">
            <mxPoint x="12" y="12" as="offset" />
          </mxGeometry>
        </mxCell>
        <mxCell id="CJxo2ervFT9Eq8WJpUUf-39" value="" style="endArrow=classic;startArrow=classic;html=1;rounded=0;entryX=0;entryY=0.5;entryDx=0;entryDy=0;entryPerimeter=0;exitX=1;exitY=0.5;exitDx=0;exitDy=0;" parent="1" source="CJxo2ervFT9Eq8WJpUUf-37" target="CJxo2ervFT9Eq8WJpUUf-2" edge="1">
          <mxGeometry width="50" height="50" relative="1" as="geometry">
            <mxPoint x="-140" y="470" as="sourcePoint" />
            <mxPoint x="-90" y="420" as="targetPoint" />
          </mxGeometry>
        </mxCell>
        <mxCell id="CJxo2ervFT9Eq8WJpUUf-40" value="" style="endArrow=classic;startArrow=classic;html=1;rounded=0;exitX=0;exitY=0.5;exitDx=0;exitDy=0;exitPerimeter=0;" parent="1" source="CJxo2ervFT9Eq8WJpUUf-2" target="CJxo2ervFT9Eq8WJpUUf-36" edge="1">
          <mxGeometry width="50" height="50" relative="1" as="geometry">
            <mxPoint x="-270" y="200" as="sourcePoint" />
            <mxPoint x="-108" y="279" as="targetPoint" />
          </mxGeometry>
        </mxCell>
        <mxCell id="CJxo2ervFT9Eq8WJpUUf-41" value="SIEM" style="rounded=0;whiteSpace=wrap;html=1;" parent="1" vertex="1">
          <mxGeometry x="-650" y="540" width="140" height="80" as="geometry" />
        </mxCell>
        <mxCell id="CJxo2ervFT9Eq8WJpUUf-42" value="Web" style="rounded=0;whiteSpace=wrap;html=1;" parent="1" vertex="1">
          <mxGeometry x="-340" y="430" width="140" height="80" as="geometry" />
        </mxCell>
        <mxCell id="CJxo2ervFT9Eq8WJpUUf-43" value="Remote Proxy" style="rounded=0;whiteSpace=wrap;html=1;" parent="1" vertex="1">
          <mxGeometry x="-340" y="530" width="140" height="80" as="geometry" />
        </mxCell>
        <mxCell id="CJxo2ervFT9Eq8WJpUUf-45" value="Identity" style="rounded=0;whiteSpace=wrap;html=1;" parent="1" vertex="1">
          <mxGeometry x="-180" y="430" width="140" height="80" as="geometry" />
        </mxCell>
        <mxCell id="CJxo2ervFT9Eq8WJpUUf-46" value="VLANs" style="swimlane;fontStyle=0;childLayout=stackLayout;horizontal=1;startSize=30;horizontalStack=0;resizeParent=1;resizeParentMax=0;resizeLast=0;collapsible=1;marginBottom=0;whiteSpace=wrap;html=1;" parent="1" vertex="1">
          <mxGeometry x="-770" y="830" width="200" height="180" as="geometry" />
        </mxCell>
        <mxCell id="CJxo2ervFT9Eq8WJpUUf-47" value="VLAN10 - WAN/External" style="text;strokeColor=none;fillColor=none;align=left;verticalAlign=middle;spacingLeft=4;spacingRight=4;overflow=hidden;points=[[0,0.5],[1,0.5]];portConstraint=eastwest;rotatable=0;whiteSpace=wrap;html=1;" parent="CJxo2ervFT9Eq8WJpUUf-46" vertex="1">
          <mxGeometry y="30" width="200" height="30" as="geometry" />
        </mxCell>
        <mxCell id="CJxo2ervFT9Eq8WJpUUf-48" value="VLAN20 - Services/Core" style="text;strokeColor=none;fillColor=none;align=left;verticalAlign=middle;spacingLeft=4;spacingRight=4;overflow=hidden;points=[[0,0.5],[1,0.5]];portConstraint=eastwest;rotatable=0;whiteSpace=wrap;html=1;" parent="CJxo2ervFT9Eq8WJpUUf-46" vertex="1">
          <mxGeometry y="60" width="200" height="30" as="geometry" />
        </mxCell>
        <mxCell id="CJxo2ervFT9Eq8WJpUUf-49" value="VLAN30 - DMZ" style="text;strokeColor=none;fillColor=none;align=left;verticalAlign=middle;spacingLeft=4;spacingRight=4;overflow=hidden;points=[[0,0.5],[1,0.5]];portConstraint=eastwest;rotatable=0;whiteSpace=wrap;html=1;" parent="CJxo2ervFT9Eq8WJpUUf-46" vertex="1">
          <mxGeometry y="90" width="200" height="30" as="geometry" />
        </mxCell>
        <mxCell id="CJxo2ervFT9Eq8WJpUUf-58" value="VLAN40 - User" style="text;strokeColor=none;fillColor=none;align=left;verticalAlign=middle;spacingLeft=4;spacingRight=4;overflow=hidden;points=[[0,0.5],[1,0.5]];portConstraint=eastwest;rotatable=0;whiteSpace=wrap;html=1;" parent="CJxo2ervFT9Eq8WJpUUf-46" vertex="1">
          <mxGeometry y="120" width="200" height="30" as="geometry" />
        </mxCell>
        <mxCell id="mW_gUQSu42ZMfpgdddVE-1" value="VLAN99 - Management" style="text;strokeColor=none;fillColor=none;align=left;verticalAlign=middle;spacingLeft=4;spacingRight=4;overflow=hidden;points=[[0,0.5],[1,0.5]];portConstraint=eastwest;rotatable=0;whiteSpace=wrap;html=1;" parent="CJxo2ervFT9Eq8WJpUUf-46" vertex="1">
          <mxGeometry y="150" width="200" height="30" as="geometry" />
        </mxCell>
        <mxCell id="CJxo2ervFT9Eq8WJpUUf-50" value="Access: 99" style="text;html=1;align=center;verticalAlign=middle;whiteSpace=wrap;rounded=0;fontSize=7;" parent="1" vertex="1">
          <mxGeometry x="-380" y="131" width="60" height="30" as="geometry" />
        </mxCell>
        <mxCell id="CJxo2ervFT9Eq8WJpUUf-51" value="Access: 20" style="text;html=1;align=center;verticalAlign=middle;whiteSpace=wrap;rounded=0;fontSize=7;" parent="1" vertex="1">
          <mxGeometry x="-380" y="230" width="60" height="30" as="geometry" />
        </mxCell>
        <mxCell id="CJxo2ervFT9Eq8WJpUUf-52" value="20" style="text;html=1;align=center;verticalAlign=middle;whiteSpace=wrap;rounded=0;" parent="1" vertex="1">
          <mxGeometry x="-480" y="350" width="60" height="30" as="geometry" />
        </mxCell>
        <mxCell id="CJxo2ervFT9Eq8WJpUUf-55" value="Access: 40" style="text;html=1;align=center;verticalAlign=middle;whiteSpace=wrap;rounded=0;fontSize=7;" parent="1" vertex="1">
          <mxGeometry x="-130" y="140" width="60" height="30" as="geometry" />
        </mxCell>
        <mxCell id="CJxo2ervFT9Eq8WJpUUf-56" value="Access: 40" style="text;html=1;align=center;verticalAlign=middle;whiteSpace=wrap;rounded=0;fontSize=7;" parent="1" vertex="1">
          <mxGeometry x="-100" y="200" width="60" height="30" as="geometry" />
        </mxCell>
        <mxCell id="CJxo2ervFT9Eq8WJpUUf-57" value="30" style="text;html=1;align=center;verticalAlign=middle;whiteSpace=wrap;rounded=0;" parent="1" vertex="1">
          <mxGeometry x="-390" y="350" width="60" height="30" as="geometry" />
        </mxCell>
        <mxCell id="CJxo2ervFT9Eq8WJpUUf-59" value="User" style="rounded=0;whiteSpace=wrap;html=1;" parent="1" vertex="1">
          <mxGeometry x="-550" y="390" width="50" height="20" as="geometry" />
        </mxCell>
        <mxCell id="CJxo2ervFT9Eq8WJpUUf-61" value="" style="endArrow=classic;startArrow=classic;html=1;rounded=0;exitX=0.5;exitY=0;exitDx=0;exitDy=0;entryX=0.5;entryY=1;entryDx=0;entryDy=0;entryPerimeter=0;" parent="1" source="CJxo2ervFT9Eq8WJpUUf-59" target="CJxo2ervFT9Eq8WJpUUf-2" edge="1">
          <mxGeometry width="50" height="50" relative="1" as="geometry">
            <mxPoint x="-420" y="430" as="sourcePoint" />
            <mxPoint x="-420" y="310" as="targetPoint" />
          </mxGeometry>
        </mxCell>
        <mxCell id="CJxo2ervFT9Eq8WJpUUf-62" value="40" style="text;html=1;align=center;verticalAlign=middle;whiteSpace=wrap;rounded=0;" parent="1" vertex="1">
          <mxGeometry x="-530" y="340" width="60" height="30" as="geometry" />
        </mxCell>
        <mxCell id="CJxo2ervFT9Eq8WJpUUf-63" value="10" style="text;html=1;align=center;verticalAlign=middle;whiteSpace=wrap;rounded=0;" parent="1" vertex="1">
          <mxGeometry x="-430" y="350" width="60" height="30" as="geometry" />
        </mxCell>
        <mxCell id="CJxo2ervFT9Eq8WJpUUf-64" value="Version/Date: v2.0 / 26 JUL 2025&lt;div&gt;Scope: High-level logical topology and VLAN scaffolding&lt;/div&gt;&lt;div&gt;Last Edited By: James Thomas&lt;br&gt;https://github.com/integrateddefense/lab_infra&lt;/div&gt;" style="text;html=1;align=left;verticalAlign=middle;whiteSpace=wrap;rounded=0;spacingBottom=0;" parent="1" vertex="1">
          <mxGeometry x="40" y="900" width="330" height="100" as="geometry" />
        </mxCell>
        <mxCell id="CJxo2ervFT9Eq8WJpUUf-65" value="&lt;i&gt;TRUNK&lt;/i&gt;" style="text;html=1;align=center;verticalAlign=middle;whiteSpace=wrap;rounded=0;" parent="1" vertex="1">
          <mxGeometry x="-610" y="290" width="60" height="30" as="geometry" />
        </mxCell>
        <mxCell id="CJxo2ervFT9Eq8WJpUUf-66" value="" style="endArrow=none;dashed=1;html=1;dashPattern=1 3;strokeWidth=2;rounded=0;" parent="1" edge="1">
          <mxGeometry width="50" height="50" relative="1" as="geometry">
            <mxPoint x="-550" y="380" as="sourcePoint" />
            <mxPoint x="-550" y="295" as="targetPoint" />
          </mxGeometry>
        </mxCell>
        <mxCell id="CJxo2ervFT9Eq8WJpUUf-67" value="" style="endArrow=none;dashed=1;html=1;dashPattern=1 3;strokeWidth=2;rounded=0;" parent="1" edge="1">
          <mxGeometry width="50" height="50" relative="1" as="geometry">
            <mxPoint x="-550" y="379.72" as="sourcePoint" />
            <mxPoint x="-530" y="379.72" as="targetPoint" />
          </mxGeometry>
        </mxCell>
        <mxCell id="CJxo2ervFT9Eq8WJpUUf-68" value="" style="endArrow=none;dashed=1;html=1;dashPattern=1 3;strokeWidth=2;rounded=0;" parent="1" edge="1">
          <mxGeometry width="50" height="50" relative="1" as="geometry">
            <mxPoint x="-140" y="260" as="sourcePoint" />
            <mxPoint x="-120" y="260" as="targetPoint" />
          </mxGeometry>
        </mxCell>
        <mxCell id="CJxo2ervFT9Eq8WJpUUf-69" value="Access: 10" style="text;html=1;align=center;verticalAlign=middle;whiteSpace=wrap;rounded=0;fontSize=7;" parent="1" vertex="1">
          <mxGeometry x="-265" y="110" width="60" height="30" as="geometry" />
        </mxCell>
        <mxCell id="Lm5Te0TcYUHUUQkeuchQ-2" value="" style="endArrow=none;dashed=1;html=1;dashPattern=1 3;strokeWidth=2;rounded=0;" edge="1" parent="1">
          <mxGeometry width="50" height="50" relative="1" as="geometry">
            <mxPoint x="-550" y="300" as="sourcePoint" />
            <mxPoint x="-530" y="300" as="targetPoint" />
          </mxGeometry>
        </mxCell>
        <mxCell id="Lm5Te0TcYUHUUQkeuchQ-3" value="" style="rounded=0;whiteSpace=wrap;html=1;container=0;" vertex="1" parent="1">
          <mxGeometry x="-10" y="390" width="380" height="350" as="geometry" />
        </mxCell>
        <mxCell id="Lm5Te0TcYUHUUQkeuchQ-4" value="Bootstrap Node" style="text;html=1;align=center;verticalAlign=middle;whiteSpace=wrap;rounded=0;container=0;" vertex="1" parent="1">
          <mxGeometry x="270" y="350" width="100" height="30" as="geometry" />
        </mxCell>
        <mxCell id="Lm5Te0TcYUHUUQkeuchQ-5" value="" style="endArrow=classic;startArrow=classic;html=1;rounded=0;entryX=0.5;entryY=1;entryDx=0;entryDy=0;entryPerimeter=0;exitX=0.5;exitY=0;exitDx=0;exitDy=0;" edge="1" parent="1" source="Lm5Te0TcYUHUUQkeuchQ-6" target="CJxo2ervFT9Eq8WJpUUf-2">
          <mxGeometry width="50" height="50" relative="1" as="geometry">
            <mxPoint x="110" y="370" as="sourcePoint" />
            <mxPoint x="-140" y="330" as="targetPoint" />
          </mxGeometry>
        </mxCell>
        <mxCell id="Lm5Te0TcYUHUUQkeuchQ-6" value="Core" style="rounded=0;whiteSpace=wrap;html=1;" vertex="1" parent="1">
          <mxGeometry x="100" y="390" width="50" height="20" as="geometry" />
        </mxCell>
        <mxCell id="Lm5Te0TcYUHUUQkeuchQ-7" value="Mgmt" style="rounded=0;whiteSpace=wrap;html=1;" vertex="1" parent="1">
          <mxGeometry x="150" y="390" width="50" height="20" as="geometry" />
        </mxCell>
        <mxCell id="Lm5Te0TcYUHUUQkeuchQ-8" value="" style="endArrow=classic;startArrow=classic;html=1;rounded=0;entryX=0.5;entryY=1;entryDx=0;entryDy=0;entryPerimeter=0;exitX=0.5;exitY=0;exitDx=0;exitDy=0;" edge="1" parent="1" source="Lm5Te0TcYUHUUQkeuchQ-7" target="CJxo2ervFT9Eq8WJpUUf-2">
          <mxGeometry width="50" height="50" relative="1" as="geometry">
            <mxPoint x="670" y="460" as="sourcePoint" />
            <mxPoint x="200" y="320" as="targetPoint" />
          </mxGeometry>
        </mxCell>
        <mxCell id="Lm5Te0TcYUHUUQkeuchQ-9" value="Identity" style="rounded=0;whiteSpace=wrap;html=1;" vertex="1" parent="1">
          <mxGeometry x="30" y="430" width="140" height="80" as="geometry" />
        </mxCell>
        <mxCell id="Lm5Te0TcYUHUUQkeuchQ-10" value="PXE" style="rounded=0;whiteSpace=wrap;html=1;" vertex="1" parent="1">
          <mxGeometry x="30" y="550" width="140" height="80" as="geometry" />
        </mxCell>
        <mxCell id="Lm5Te0TcYUHUUQkeuchQ-13" value="* Offers core services to stand up the remainder of the lab environment via VLAN20" style="text;html=1;align=center;verticalAlign=middle;whiteSpace=wrap;rounded=0;container=0;" vertex="1" parent="1">
          <mxGeometry x="10" y="660" width="315" height="30" as="geometry" />
        </mxCell>
        <mxCell id="Lm5Te0TcYUHUUQkeuchQ-14" value="&lt;i&gt;Packer&lt;/i&gt;&lt;div&gt;&lt;font style=&quot;font-size: 10px;&quot;&gt;(only when building images)&lt;/font&gt;&lt;/div&gt;" style="rounded=0;whiteSpace=wrap;html=1;" vertex="1" parent="1">
          <mxGeometry x="200" y="430" width="140" height="80" as="geometry" />
        </mxCell>
        <mxCell id="Lm5Te0TcYUHUUQkeuchQ-15" value="&lt;i&gt;TRUNK&lt;/i&gt;" style="text;html=1;align=center;verticalAlign=middle;whiteSpace=wrap;rounded=0;" vertex="1" parent="1">
          <mxGeometry x="190" y="280" width="60" height="30" as="geometry" />
        </mxCell>
        <mxCell id="Lm5Te0TcYUHUUQkeuchQ-16" value="" style="endArrow=none;dashed=1;html=1;dashPattern=1 3;strokeWidth=2;rounded=0;" edge="1" parent="1">
          <mxGeometry width="50" height="50" relative="1" as="geometry">
            <mxPoint x="180" y="370" as="sourcePoint" />
            <mxPoint x="180" y="285" as="targetPoint" />
          </mxGeometry>
        </mxCell>
        <mxCell id="Lm5Te0TcYUHUUQkeuchQ-17" value="" style="endArrow=none;dashed=1;html=1;dashPattern=1 3;strokeWidth=2;rounded=0;" edge="1" parent="1">
          <mxGeometry width="50" height="50" relative="1" as="geometry">
            <mxPoint x="180" y="369.72" as="sourcePoint" />
            <mxPoint x="160" y="370" as="targetPoint" />
          </mxGeometry>
        </mxCell>
        <mxCell id="Lm5Te0TcYUHUUQkeuchQ-18" value="" style="endArrow=none;dashed=1;html=1;dashPattern=1 3;strokeWidth=2;rounded=0;" edge="1" parent="1">
          <mxGeometry width="50" height="50" relative="1" as="geometry">
            <mxPoint x="180" y="290" as="sourcePoint" />
            <mxPoint x="160" y="290" as="targetPoint" />
          </mxGeometry>
        </mxCell>
        <mxCell id="Lm5Te0TcYUHUUQkeuchQ-19" value="20" style="text;html=1;align=center;verticalAlign=middle;whiteSpace=wrap;rounded=0;" vertex="1" parent="1">
          <mxGeometry x="20" y="360" width="60" height="30" as="geometry" />
        </mxCell>
        <mxCell id="Lm5Te0TcYUHUUQkeuchQ-20" value="99" style="text;html=1;align=center;verticalAlign=middle;whiteSpace=wrap;rounded=0;" vertex="1" parent="1">
          <mxGeometry x="90" y="340" width="60" height="30" as="geometry" />
        </mxCell>
      </root>
    </mxGraphModel>
  </diagram>
</mxfile>
